<?xml version="1.0" encoding="UTF-8"?>
<svg width="16px" height="26px" viewBox="0 0 16 26" version="1.1" xmlns="http://www.w3.org/2000/svg" xmlns:xlink="http://www.w3.org/1999/xlink">
    <!-- Generator: Sketch 49.2 (51160) - http://www.bohemiancoding.com/sketch -->
    <title>Page 1</title>
    <desc>Created with Sketch.</desc>
    <defs></defs>
    <g id="Desktop" stroke="none" stroke-width="1" fill="none" fill-rule="evenodd">
        <g id="12.3---FInd-a-rated-building---Rating-details" transform="translate(-1187.000000, -1014.000000)" fill="#EC9522">
            <g id="Group-2" transform="translate(1187.000000, 1014.000000)">
                <g id="Page-1">
                    <path d="M1.14845141,26 C0.514276542,26 0,25.4890798 0,24.8585339 L0,19.7130333 C0,19.0824874 0.514276542,18.5715672 1.14845141,18.5715672 C1.78285597,18.5715672 2.29690282,19.0824874 2.29690282,19.7130333 L2.29690282,21.9160627 L11.91771,13.0751799 L2.98252831,13.0751799 C2.51097416,13.0751799 2.08719559,12.7886719 1.91400912,12.3526318 C1.74105234,11.9165918 1.85383027,11.4195975 2.19836569,11.0995304 L13.8183971,0.307425441 C14.2819121,-0.122907261 15.0088818,-0.0984798879 15.441848,0.361987519 C15.8748142,0.822683219 15.8502373,1.54500294 15.3867223,1.97556393 L5.89339326,10.7922477 L14.8513143,10.7922477 C15.3240169,10.7922477 15.7487142,11.0801255 15.9209819,11.5175353 C16.0932496,11.9551734 15.9781748,12.4528526 15.6311128,12.7717782 L3.72052319,23.7170679 L6.04108411,23.7170679 C6.67548867,23.7170679 7.18953552,24.2279881 7.18953552,24.8585339 C7.18953552,25.4890798 6.67548867,26 6.04108411,26 L1.14845141,26 Z" id="Fill-1"></path>
                </g>
            </g>
        </g>
    </g>
</svg>