<?xml version="1.0" encoding="UTF-8"?>
<svg width="24px" height="30px" viewBox="0 0 24 30" version="1.1" xmlns="http://www.w3.org/2000/svg" xmlns:xlink="http://www.w3.org/1999/xlink">
    <!-- Generator: Sketch 49.2 (51160) - http://www.bohemiancoding.com/sketch -->
    <title>PDF</title>
    <desc>Created with Sketch.</desc>
    <defs></defs>
    <g id="Mobile" stroke="none" stroke-width="1" fill="none" fill-rule="evenodd">
        <g id="14.0-Commitment-Agreements---Building-details---Mobile" transform="translate(-19.000000, -570.000000)" fill="#007299">
            <g id="Page-1" transform="translate(19.000000, 570.000000)">
                <g id="CSV">
                    <polygon id="Fill-4" points="3.6996 19.8879 20.2395 19.8879 20.2395 18.9504 3.6996 18.9504"></polygon>
                    <polygon id="Fill-5" points="3.6996 22.1859 20.2395 22.1859 20.2395 21.2484 3.6996 21.2484"></polygon>
                    <polygon id="Fill-6" points="3.6996 24.4851 20.2395 24.4851 20.2395 23.5476 3.6996 23.5476"></polygon>
                    <path d="M3.7407,30 L20.2593,30 C22.16946,30 23.7186,28.45077 23.7186,26.5407 L23.7186,3.4593 C23.7186,1.54914 22.16937,0 20.2593,0 L3.7407,0 C1.83054,0 0.2814,1.54923 0.2814,3.4593 L0.2814,26.5407 C0.2814,28.45086 1.83063,30 3.7407,30 Z M1.21884,3.4593 C1.21884,2.06829 2.34969,0.93744 3.7407,0.93744 L20.2593,0.93744 C21.65031,0.93744 22.78116,2.06829 22.78116,3.4593 L22.78116,26.5407 C22.78116,27.9317106 21.65031,29.0625606 20.2593,29.0625606 L3.7407,29.0625606 C2.34969,29.0625606 1.21884,27.9317106 1.21884,26.5407 L1.21884,3.4593 Z" id="Fill-7"></path>
                    <path d="M7.50175781,8.17558594 C7.02323979,8.17558594 6.65273569,8.3553693 6.39023437,8.71494141 C6.12773306,9.07451352 5.99648437,9.57558272 5.99648437,10.2181641 C5.99648437,11.5552801 6.49823717,12.2238281 7.50175781,12.2238281 C7.92285367,12.2238281 8.43280951,12.1185557 9.03164062,11.9080078 L9.03164062,12.9744141 C8.53945066,13.1794932 7.98984679,13.2820312 7.3828125,13.2820312 C6.51054251,13.2820312 5.84336169,13.0174831 5.38125,12.4883789 C4.91913831,11.9592747 4.68808594,11.1998096 4.68808594,10.2099609 C4.68808594,9.58652032 4.80156137,9.04033438 5.02851562,8.57138672 C5.25546988,8.10243906 5.58154084,7.74287234 6.00673828,7.49267578 C6.43193572,7.24247922 6.93027058,7.11738281 7.50175781,7.11738281 C8.0841826,7.11738281 8.669333,7.25820172 9.25722656,7.53984375 L8.84707031,8.5734375 C8.62285044,8.46679634 8.39726676,8.37382852 8.1703125,8.29453125 C7.94335824,8.21523398 7.72050891,8.17558594 7.50175781,8.17558594 Z M13.846875,11.5347656 C13.846875,12.0761746 13.6520527,12.5027328 13.2624023,12.8144531 C12.872752,13.1261734 12.3306675,13.2820312 11.6361328,13.2820312 C10.9962859,13.2820312 10.4302759,13.16172 9.93808594,12.9210937 L9.93808594,11.7398437 C10.3427755,11.9203134 10.6852525,12.0474606 10.9655273,12.1212891 C11.2458022,12.1951176 11.5021473,12.2320312 11.7345703,12.2320312 C12.013478,12.2320312 12.2274407,12.1787115 12.3764648,12.0720703 C12.525489,11.9654292 12.6,11.806837 12.6,11.5962891 C12.6,11.4787103 12.5671878,11.3741216 12.5015625,11.2825195 C12.4359372,11.1909175 12.3395514,11.1027348 12.2124023,11.0179687 C12.0852533,10.9332027 11.8261738,10.7978525 11.4351562,10.6119141 C11.0687482,10.4396476 10.7939462,10.2742195 10.6107422,10.115625 C10.4275381,9.95703046 10.2812505,9.77246199 10.171875,9.56191406 C10.0624995,9.35136613 10.0078125,9.10527485 10.0078125,8.82363281 C10.0078125,8.29316141 10.1875959,7.87617339 10.547168,7.57265625 C10.9067401,7.26913911 11.4037078,7.11738281 12.0380859,7.11738281 C12.3498062,7.11738281 12.6471666,7.15429651 12.9301758,7.228125 C13.213185,7.30195349 13.5091781,7.40585871 13.8181641,7.53984375 L13.4080078,8.52832031 C13.0880843,8.39706966 12.8235362,8.30546901 12.6143555,8.25351563 C12.4051747,8.20156224 12.1994151,8.17558594 11.9970703,8.17558594 C11.7564441,8.17558594 11.5718756,8.23164006 11.4433594,8.34375 C11.3148431,8.45585994 11.2505859,8.60214754 11.2505859,8.78261719 C11.2505859,8.89472712 11.2765622,8.99248005 11.3285156,9.07587891 C11.380469,9.15927776 11.463183,9.23994102 11.5766602,9.31787109 C11.6901373,9.39580117 11.9587869,9.53593649 12.3826172,9.73828125 C12.9431669,10.0062513 13.3273427,10.274901 13.5351562,10.5442383 C13.7429698,10.8135756 13.846875,11.143748 13.846875,11.5347656 Z M18.3544922,7.20351562 L19.6382812,7.20351562 L17.5998047,13.2 L16.2134766,13.2 L14.1791016,7.20351562 L15.4628906,7.20351562 L16.5908203,10.771875 C16.6537113,10.9824229 16.718652,11.2278306 16.7856445,11.5081055 C16.8526371,11.7883803 16.8943359,11.9832026 16.9107422,12.0925781 C16.9408205,11.8410144 17.0433585,11.4007844 17.2183594,10.771875 L18.3544922,7.20351562 Z"></path>
                </g>
            </g>
        </g>
    </g>
</svg>