<?xml version="1.0" encoding="UTF-8"?>
<svg width="21px" height="15px" viewBox="0 0 21 15" version="1.1" xmlns="http://www.w3.org/2000/svg" xmlns:xlink="http://www.w3.org/1999/xlink">
    <!-- Generator: Sketch 49.2 (51160) - http://www.bohemiancoding.com/sketch -->
    <title>ICON - EMAIL</title>
    <desc>Created with Sketch.</desc>
    <defs></defs>
    <g id="Mobile" stroke="none" stroke-width="1" fill="none" fill-rule="evenodd">
        <g id="11.2-Find-an-accredited-assessor---results-MOBILE" transform="translate(-121.000000, -1850.000000)" fill="#007299" fill-rule="nonzero">
            <g id="Group-3-Copy" transform="translate(121.000000, 1789.000000)">
                <g id="ICON---EMAIL" transform="translate(0.806818, 61.590909)">
                    <path d="M1.95121951,0 C0.878439024,0 0,0.9004 0,2 L0,12 C0,13.0996 0.878439024,14 1.95121951,14 L18.0487805,14 C19.121561,14 20,13.0996 20,12 L20,2 C20,0.9004 19.121561,0 18.0487805,0 L1.95121951,0 Z M1.95121951,1 L18.0487805,1 C18.1897854,1 18.3174634,1.0332025 18.4375122,1.0859375 L10.6097073,8.2499375 C10.2400488,8.5888125 9.77604878,8.5888125 9.40543902,8.2499375 L1.5625122,1.0859375 C1.68255854,1.0332025 1.81021951,1 1.9512439,1 L1.95121951,1 Z M0.983219512,1.89845 L6.59297561,7.02345 L1.0822439,12.4532 C1.01745854,12.318435 0.975536585,12.16315 0.975536585,12.000075 L0.975536585,2.000075 C0.975536585,1.96492 0.980300244,1.9326925 0.983158537,1.8985125 L0.983219512,1.89845 Z M19.016878,1.89845 C19.0197363,1.93263 19.0245,1.964855 19.0245,2.0000125 L19.0245,12.0000125 C19.0245,12.1630975 18.982578,12.3183625 18.9177927,12.4531375 L13.4224268,7.0156375 L19.016878,1.89845 Z M12.6905366,7.68745 L18.0715122,12.99995 L18.0486463,12.99995 L1.95108537,12.99995 L1.92821951,12.99995 L7.32456098,7.6952 L8.7574878,8.9999 C9.47109756,9.65225 10.543878,9.653225 11.2574878,8.9999 L12.6905366,7.68745 Z" id="Shape"></path>
                </g>
            </g>
        </g>
    </g>
</svg>