<?xml version="1.0" encoding="UTF-8"?>
<svg width="16px" height="16px" viewBox="0 0 16 16" version="1.1" xmlns="http://www.w3.org/2000/svg" xmlns:xlink="http://www.w3.org/1999/xlink">
    <!-- Generator: Sketch 49.2 (51160) - http://www.bohemiancoding.com/sketch -->
    <title>Group 6 Copy</title>
    <desc>Created with Sketch.</desc>
    <defs></defs>
    <g id="Desktop" stroke="none" stroke-width="1" fill="none" fill-rule="evenodd">
        <g id="15.1.1-Estimate-your-rating--Error" transform="translate(-665.000000, -860.000000)" fill="#D0021B" fill-rule="nonzero">
            <g id="Group-6-Copy" transform="translate(665.000000, 860.000000)">
                <g id="noun_428650">
                    <path d="M15.2402655,11.7558095 L10.0530851,1.69028571 C9.49639335,0.610095238 8.71493077,0.0154285714 7.85354191,0.0154285714 C6.991455,0.0154285714 6.20999242,0.610095238 5.65330067,1.69028571 L0.465596734,11.7558095 C-0.0886518519,12.832 -0.150079907,13.8788571 0.292306795,14.7049524 C0.734518985,15.5300952 1.60149221,15.9845714 2.73302491,15.9845714 L12.9733609,15.9845714 C14.1050681,15.9845714 14.9713432,15.5300952 15.4135554,14.7049524 C15.8562912,13.8798095 15.7945141,12.832 15.2402655,11.7558095 Z M14.3717217,14.0394286 C14.157596,14.4384762 13.6481969,14.6662857 12.9733609,14.6662857 L2.73302491,14.6662857 C2.05836337,14.6662857 1.5482662,14.4373333 1.33483861,14.0394286 C1.12071298,13.6401905 1.18807442,13.0432381 1.51825022,12.4017143 L6.70525611,2.33638095 C7.03438484,1.69904762 7.45251444,1.33352381 7.85354191,1.33352381 C8.25404584,1.33352381 8.67200093,1.69904762 9.00043161,2.33638095 L14.1870885,12.4017143 C14.5177878,13.0432381 14.5849747,13.6401905 14.3717217,14.0394286 Z" id="Shape"></path>
                    <path d="M7.85301837,11.2731429 C7.41429641,11.2731429 7.0581184,11.6619048 7.0581184,12.1409524 C7.0581184,12.6211429 7.41429641,13.0100952 7.85301837,13.0100952 C8.29243838,13.0100952 8.64861639,12.6213333 8.64861639,12.1409524 C8.64861639,11.6619048 8.29243838,11.2731429 7.85301837,11.2731429 Z" id="Shape"></path>
                    <path d="M7.85301837,4.98438095 C7.41429641,4.98438095 7.0581184,5.37314286 7.0581184,5.85219048 C7.0581184,5.87790476 7.06283021,5.90114286 7.06457533,5.92552381 L7.06056156,5.92552381 L7.37782351,10.1299048 L7.38026667,10.1299048 C7.40085903,10.396381 7.60381592,10.607619 7.85319288,10.607619 C8.10326789,10.607619 8.30605028,10.3967619 8.32664264,10.1299048 L8.32926031,10.1299048 L8.64634774,5.92552381 L8.64215946,5.92552381 C8.6442536,5.90114286 8.64861639,5.87790476 8.64861639,5.85219048 C8.64861639,5.37314286 8.29243838,4.98438095 7.85301837,4.98438095 Z" id="Shape"></path>
                </g>
            </g>
        </g>
    </g>
</svg>