<?xml version="1.0" encoding="UTF-8"?>
<svg width="9px" height="9px" viewBox="0 0 9 9" version="1.1" xmlns="http://www.w3.org/2000/svg" xmlns:xlink="http://www.w3.org/1999/xlink">
    <!-- Generator: Sketch 49.2 (51160) - http://www.bohemiancoding.com/sketch -->
    <title>Close Copy 3</title>
    <desc>Created with Sketch.</desc>
    <defs></defs>
    <g id="Desktop" stroke="none" stroke-width="1" fill="none" fill-rule="evenodd" stroke-linecap="round" stroke-linejoin="round">
        <g id="12.1---FInd-a-rated-building---Search-results" transform="translate(-1189.000000, -836.000000)" fill="#007299" fill-rule="nonzero" stroke="#007299" stroke-width="2">
            <g id="Close-Copy-4" transform="translate(1190.000000, 837.000000)">
                <path d="M3.7097262,3.49989412 L6.95652387,0.253278249 C7.01449204,0.195308316 7.01449204,0.101241228 6.95652387,0.0432726946 C6.89855569,-0.0144242315 6.80449144,-0.0144242315 6.74679766,0.0432726946 L3.5,3.29016857 L0.253202338,0.0432726946 C0.195507157,-0.0144242315 0.101169916,-0.0144242315 0.0434761348,0.0432726946 C-0.0144920449,0.101242628 -0.0144920449,0.195309716 0.0434761348,0.253278249 L3.2902738,3.49989412 L0.0434761348,6.74679 C-0.0144920449,6.80476064 -0.0144920449,6.89882702 0.0434761348,6.95652255 C0.0727339236,6.98578122 0.110194281,7 0.148475736,7 C0.186483491,7 0.224215448,6.98578122 0.253202338,6.95652255 L3.5,3.70962667 L6.74679766,6.95652255 C6.77578175,6.98578122 6.81351651,7 6.85152426,7 C6.88953202,7 6.92753698,6.98578122 6.95652387,6.95652255 C7.01449204,6.89855262 7.01449204,6.80448553 6.95652387,6.74679 L3.7097262,3.49989412 Z" id="Shape"></path>
            </g>
        </g>
    </g>
</svg>