<?xml version="1.0" encoding="UTF-8"?>
<svg width="18px" height="29px" viewBox="0 0 18 29" version="1.1" xmlns="http://www.w3.org/2000/svg" xmlns:xlink="http://www.w3.org/1999/xlink">
    <!-- Generator: Sketch 49.2 (51160) - http://www.bohemiancoding.com/sketch -->
    <title>RATING ICON - IEQ</title>
    <desc>Created with Sketch.</desc>
    <defs>
        <polygon id="path-1" points="0 2.37704918e-05 17.892696 2.37704918e-05 17.892696 28.8419262 0 28.8419262"></polygon>
    </defs>
    <g id="Desktop" stroke="none" stroke-width="1" fill="none" fill-rule="evenodd">
        <g id="12.3---FInd-a-rated-building---Rating-details" transform="translate(-1186.000000, -1362.000000)">
            <g id="RATING-ICON---IEQ" transform="translate(1186.000000, 1362.000000)">
                <g id="Page-1">
                    <mask id="mask-2" fill="white">
                        <use xlink:href="#path-1"></use>
                    </mask>
                    <g id="Clip-2"></g>
                    <path d="M5.340936,15.4700975 L5.423256,15.4208926 L5.423256,5.37643361 C5.423256,3.74672869 6.761976,2.42081066 8.407416,2.42081066 C10.054536,2.42081066 11.394216,3.74672869 11.394216,5.37643361 L11.394216,15.4161385 L11.476056,15.4653434 C13.291896,16.5530811 14.375736,18.439032 14.375736,20.5103926 C14.375736,23.7700402 11.699496,26.4218762 8.409816,26.4218762 C5.120136,26.4218762 2.444136,23.7700402 2.444136,20.5103926 C2.444136,18.4404582 3.527016,16.5561713 5.340936,15.4700975 Z M16.692696,12.550368 C17.355576,12.550368 17.892696,12.0183844 17.892696,11.3618434 C17.892696,10.7053025 17.355576,10.1733189 16.692696,10.1733189 L13.841016,10.1733189 L13.841016,8.51651557 L16.672776,8.51651557 C17.335656,8.51651557 17.872776,7.98453197 17.872776,7.32799098 C17.872776,6.67145 17.335656,6.13946639 16.672776,6.13946639 L13.841016,6.13946639 L13.841016,5.37643361 C13.841016,2.41177787 11.403576,2.37704918e-05 8.407416,2.37704918e-05 C5.414376,2.37704918e-05 2.979096,2.41177787 2.979096,5.37643361 L2.979096,14.1762697 C1.085016,15.7505893 -2.4e-05,18.0544254 -2.4e-05,20.5103926 C-2.4e-05,25.1042779 3.772776,28.84195 8.409816,28.84195 C13.046856,28.84195 16.819416,25.1042779 16.819416,20.5103926 C16.819416,18.0556139 15.734856,15.750827 13.841016,14.1741303 L13.841016,12.550368 L16.692696,12.550368 Z" id="Fill-1" fill="#5C4E9F" mask="url(#mask-2)"></path>
                </g>
            </g>
        </g>
    </g>
</svg>