<?xml version="1.0" encoding="UTF-8"?>
<svg width="21px" height="14px" viewBox="0 0 21 14" version="1.1" xmlns="http://www.w3.org/2000/svg" xmlns:xlink="http://www.w3.org/1999/xlink">
    <!-- Generator: Sketch 49.2 (51160) - http://www.bohemiancoding.com/sketch -->
    <title>ICON - Email Copy 4</title>
    <desc>Created with Sketch.</desc>
    <defs></defs>
    <g id="Desktop" stroke="none" stroke-width="1" fill="none" fill-rule="evenodd">
        <g id="6.0-Staff-Page" transform="translate(-391.000000, -1343.000000)" fill="#007299">
            <g id="Group" transform="translate(362.000000, 1323.000000)">
                <g id="ICON---Email" transform="translate(29.000000, 20.000000)">
                    <path d="M1.19318182,0 C0.544377273,0 0,0.550634483 0,1.20689655 L0,12.7931034 C0,13.4493655 0.544377273,14 1.19318182,14 L19.8068182,14 C20.4556227,14 21,13.4493655 21,12.7931034 L21,1.20689655 C21,0.550634483 20.4556227,0 19.8068182,0 L1.19318182,0 Z M2.56534091,1.44827586 L18.4346591,1.44827586 L10.7534318,8.38793103 C10.6490284,8.48221862 10.350733,8.48221862 10.2463295,8.38793103 L2.56534091,1.44827586 Z M1.43181818,2.36097931 L9.29202273,9.46670345 C9.98743295,10.0946759 11.0128057,10.0946759 11.7082159,9.46670345 L19.5684205,2.36097931 L19.5684205,12.5517724 L1.43205682,12.5517724 L1.43181818,2.36097931 Z" id="Page-1"></path>
                </g>
            </g>
        </g>
    </g>
</svg>