<?xml version="1.0" encoding="UTF-8"?>
<svg width="15px" height="15px" viewBox="0 0 15 15" version="1.1" xmlns="http://www.w3.org/2000/svg" xmlns:xlink="http://www.w3.org/1999/xlink">
    <!-- Generator: Sketch 50 (54983) - http://www.bohemiancoding.com/sketch -->
    <title>close</title>
    <desc>Created with Sketch.</desc>
    <defs></defs>
    <g id="close" stroke="none" stroke-width="1" fill="none" fill-rule="evenodd" stroke-linecap="round" stroke-linejoin="round">
        <path d="M7.88949152,7.49980337 L13.9192586,1.47037389 C14.0269138,1.36271544 14.0269138,1.18801942 13.9192586,1.08036358 C13.8116034,0.973212141 13.6369127,0.973212141 13.5297671,1.08036358 L7.5,7.11031307 L1.47023291,1.08036358 C1.36308472,0.973212141 1.18788699,0.973212141 1.08074139,1.08036358 C0.973086202,1.18802202 0.973086202,1.36271804 1.08074139,1.47037389 L7.11050848,7.49980337 L1.08074139,13.5297529 C0.973086202,13.6374126 0.973086202,13.8121073 1.08074139,13.9192562 C1.13507729,13.9735937 1.20464652,14 1.27574065,14 C1.34632648,14 1.41640012,13.9735937 1.47023291,13.9192562 L7.5,7.88930667 L13.5297671,13.9192562 C13.5835947,13.9735937 13.6536735,14 13.7242593,14 C13.7948452,14 13.8654258,13.9735937 13.9192586,13.9192562 C14.0269138,13.8115977 14.0269138,13.6369017 13.9192586,13.5297529 L7.88949152,7.49980337 Z" id="Shape" stroke="#4A4A4A" stroke-width="2" fill="#4A4A4A" fill-rule="nonzero"></path>
    </g>
</svg>