<?xml version="1.0" encoding="UTF-8"?>
<svg width="25px" height="26px" viewBox="0 0 25 26" version="1.1" xmlns="http://www.w3.org/2000/svg" xmlns:xlink="http://www.w3.org/1999/xlink">
    <!-- Generator: Sketch 49.2 (51160) - http://www.bohemiancoding.com/sketch -->
    <title>Group 6</title>
    <desc>Created with Sketch.</desc>
    <defs></defs>
    <g id="Desktop" stroke="none" stroke-width="1" fill="none" fill-rule="evenodd">
        <g id="12.3---FInd-a-rated-building---Rating-details" transform="translate(-1183.000000, -1267.000000)" fill="#5FC03E">
            <g id="Group-6" transform="translate(1183.000000, 1267.000000)">
                <path d="M12.5,0.533774767 C11.9125204,0.533774767 11.4364961,1.01866001 11.4364961,1.61707514 C11.4364961,2.21549027 11.9125204,2.70037552 12.5,2.70037552 C18.2197369,2.70037552 22.8729921,7.44024798 22.8729921,13.2664541 C22.8729921,19.0930935 18.2197369,23.8333992 12.5,23.8333992 C6.78026307,23.8333992 2.1270079,19.0930935 2.1270079,13.2664541 C2.1270079,9.850158 3.76395317,6.65788845 6.45610707,4.68541513 L6.08558229,6.43451191 C5.96179043,7.01949412 6.32678499,7.59580992 6.90086442,7.72212274 C6.9763732,7.73858891 7.05188198,7.74660533 7.12611455,7.74660533 C7.61617717,7.74660533 8.05710591,7.39929923 8.16473251,6.89166467 L9.10827321,2.43865015 C9.22547134,1.88400035 8.90344235,1.3313005 8.36913797,1.17097205 L4.61518173,0.0445563169 C4.05131194,-0.124871862 3.46021644,0.203801472 3.29452253,0.777517351 C3.12840321,1.35144989 3.45064491,1.9537649 4.0140893,2.12275976 L5.65167268,2.61436147 C2.14700177,4.95645688 0,8.96705153 0,13.2664541 C0,20.2877571 5.60764362,26 12.5,26 C19.3923564,26 25,20.2877571 25,13.2664541 C25,6.24558433 19.3923564,0.533774767 12.5,0.533774767" id="Fill-1"></path>
            </g>
        </g>
    </g>
</svg>