<?xml version="1.0" encoding="UTF-8"?>
<svg width="21px" height="12px" viewBox="0 0 21 12" version="1.1" xmlns="http://www.w3.org/2000/svg" xmlns:xlink="http://www.w3.org/1999/xlink">
    <!-- Generator: Sketch 49 (51002) - http://www.bohemiancoding.com/sketch -->
    <title>Page 1 Copy</title>
    <desc>Created with Sketch.</desc>
    <defs></defs>
    <g id="Desktop" stroke="none" stroke-width="1" fill="none" fill-rule="evenodd">
        <g id="2.0-Standard-Content-Page-Desktop" transform="translate(-1070.000000, -4241.000000)" fill="#FFFFFF">
            <path d="M1091,4246.99826 C1090.99156,4246.78379 1090.89987,4246.53532 1090.74908,4246.37946 L1085.80792,4241.27908 C1085.47257,4240.98727 1084.83078,4240.86655 1084.45683,4241.20408 C1084.08769,4241.53692 1084.09977,4242.18266 1084.46648,4242.51668 L1087.94073,4246.09834 L1070.92647,4246.09834 C1070.415,4246.09834 1070,4246.50151 1070,4246.99841 C1070,4247.4953 1070.415,4247.89847 1070.92647,4247.89847 L1087.94073,4247.89847 L1084.46648,4251.48014 C1084.15043,4251.78835 1084.09132,4252.45638 1084.45683,4252.79273 C1084.82114,4253.12909 1085.48703,4253.02127 1085.80792,4252.71773 L1090.74908,4247.61735 C1090.91797,4247.44273 1091,4247.23764 1091,4246.99856 L1091,4246.99826 Z" id="Page-1-Copy"></path>
        </g>
    </g>
</svg>