<?xml version="1.0" encoding="UTF-8"?>
<svg width="29px" height="29px" viewBox="0 0 29 29" version="1.1" xmlns="http://www.w3.org/2000/svg" xmlns:xlink="http://www.w3.org/1999/xlink">
    <!-- Generator: Sketch 49 (51002) - http://www.bohemiancoding.com/sketch -->
    <title>ICON - SEARCH</title>
    <desc>Created with Sketch.</desc>
    <defs></defs>
    <g id="ICON---SEARCH" stroke="none" stroke-width="1" fill="none" fill-rule="evenodd">
        <path d="M11.6493685,2 C6.32203308,2 2,6.41766265 2,11.8492151 C2,17.283085 6.32316934,21.6984302 11.6493685,21.6984302 C14.2325893,21.6984302 16.590661,20.6619162 18.3248714,18.9736159 L26.0213003,26.8222815 C26.1267135,26.9343077 26.2720748,26.9988084 26.4241029,26.9999382 C26.5761226,27.0022012 26.7225973,26.9422276 26.831337,26.8324639 C26.9389717,26.7238328 27,26.5755964 27,26.4194342 C26.9988904,26.2644075 26.937861,26.1161652 26.8291185,26.0075342 L19.0883757,18.1226582 C20.476511,16.4173824 21.3165166,14.2356944 21.3165166,11.8492875 C21.3165166,6.41773507 16.97886,2.00007242 11.6495361,2.00007242 L11.6493685,2 Z M11.6493685,3.15873119 C16.3653983,3.15873119 20.1800931,7.04453622 20.1800931,11.8492151 C20.1800931,16.6573701 16.3651142,20.539699 11.6493685,20.539699 C6.93674748,20.539699 3.13625582,16.6573701 3.13625582,11.8492151 C3.13625582,7.04453622 6.93674748,3.15873119 11.6493685,3.15873119 Z" id="Shape" stroke="#4A4A4A" stroke-width="1.5" fill="#4A4A4A" fill-rule="nonzero"></path>
    </g>
</svg>
