<svg width="27px" height="25px" viewBox="0 0 27 25" version="1.1" xmlns="http://www.w3.org/2000/svg" xmlns:xlink="http://www.w3.org/1999/xlink">
    <!-- Generator: Sketch 49 (51002) - http://www.bohemiancoding.com/sketch -->
    <desc>Created with Sketch.</desc>
    <defs></defs>
    <g id="Mobile" stroke="none" stroke-width="1" fill="none" fill-rule="evenodd">
        <g id="Mobile-search" transform="translate(-278.000000, -37.000000)" fill="#0091B3" fill-rule="nonzero" stroke="#0091B3" stroke-width="1.5">
            <g id="Header-image" transform="translate(279.000000, 38.000000)">
                <g id="ICON---Hamburger">
                    <path d="M0.4383147,1 C0.197469539,1 0,0.77604 0,0.5 C0,0.223956667 0.19632992,0 0.4383147,0 L24.5616853,0 C24.8036701,0 25,0.223956667 25,0.5 C25,0.77604 24.8036701,1 24.5616853,1 L0.4383147,1 Z M0.4383147,23 C0.197469539,23 0,22.77604 0,22.5 C0,22.2239567 0.19632992,22 0.4383147,22 L24.5616853,22 C24.8036701,22 25,22.2239567 25,22.5 C25,22.77604 24.8036701,23 24.5616853,23 L0.4383147,23 Z M0.4383147,12 C0.197469539,12 0,11.77604 0,11.5 C0,11.2239567 0.19632992,11 0.4383147,11 L24.5616853,11 C24.8036701,11 25,11.2239567 25,11.5 C25,11.77604 24.8036701,12 24.5616853,12 L0.4383147,12 Z" id="Combined-Shape"></path>
                </g>
            </g>
        </g>
    </g>
</svg>
