<?xml version="1.0" encoding="UTF-8"?>
<svg width="36px" height="36px" viewBox="0 0 36 36" version="1.1" xmlns="http://www.w3.org/2000/svg" xmlns:xlink="http://www.w3.org/1999/xlink">
    <!-- Generator: Sketch 49 (51002) - http://www.bohemiancoding.com/sketch -->
    <title>Page 1</title>
    <desc>Created with Sketch.</desc>
    <defs></defs>
    <g id="Symbols" stroke="none" stroke-width="1" fill="none" fill-rule="evenodd">
        <g id="social-dark-copy" transform="translate(0.000000, -2.000000)">
            <g id="Page-1" transform="translate(0.000000, 2.000000)">
                <g id="Group-3"></g>
                <path d="M33.3359,0 L2.6549,0 C1.1899,0 -0.0001,1.162 -0.0001,2.596 L-0.0001,33.402 C-0.0001,34.836 1.1899,36 2.6549,36 L33.3359,36 C34.8039,36 35.9989,34.836 35.9989,33.402 L35.9989,2.596 C35.9989,1.162 34.8039,0 33.3359,0" id="Fill-1" fill="#4A4A4A"></path>
                <path d="M8.0078,4.9561 C9.7158,4.9561 11.1028,6.3431 11.1028,8.0521 C11.1028,9.7621 9.7158,11.1491 8.0078,11.1491 C6.2928,11.1491 4.9098,9.7621 4.9098,8.0521 C4.9098,6.3431 6.2928,4.9561 8.0078,4.9561 Z M5.3338,30.6761 L10.6788,30.6761 L10.6788,13.4961 L5.3338,13.4961 L5.3338,30.6761 Z" id="Fill-4" fill="#FEFEFE"></path>
                <path d="M14.0283,13.4961 L19.1463,13.4961 L19.1463,15.8451 L19.2193,15.8451 C19.9313,14.4941 21.6743,13.0701 24.2713,13.0701 C29.6773,13.0701 30.6763,16.6271 30.6763,21.2541 L30.6763,30.6761 L25.3383,30.6761 L25.3383,22.3211 C25.3383,20.3291 25.3033,17.7661 22.5633,17.7661 C19.7853,17.7661 19.3613,19.9371 19.3613,22.1791 L19.3613,30.6761 L14.0283,30.6761 L14.0283,13.4961 Z" id="Fill-6" fill="#FEFEFE"></path>
            </g>
        </g>
    </g>
</svg>