<?xml version="1.0" encoding="UTF-8"?>
<svg width="781px" height="279px" viewBox="0 0 781 279" version="1.1" xmlns="http://www.w3.org/2000/svg" xmlns:xlink="http://www.w3.org/1999/xlink">
    <!-- Generator: Sketch 48 (47235) - http://www.bohemiancoding.com/sketch -->
    <title>Cityscape</title>
    <desc>Created with Sketch.</desc>
    <defs></defs>
    <g id="Desktop-HOVER" stroke="none" stroke-width="1" fill="none" fill-rule="evenodd" transform="translate(-557.000000, -1476.000000)">
        <g id="Cityscape" transform="translate(555.000000, 1476.000000)" fill="#0091B3">
            <g id="Page-1" transform="translate(2.000000, 0.000000)">
                <path d="M178.092199,133 L142.907801,133 C141.302695,133 140,134.341 140,136 C140,137.659 141.302695,139 142.907801,139 L178.092199,139 C179.697305,139 181,137.659 181,136 C181,134.341 179.697305,133 178.092199,133" id="Fill-1"></path>
                <path d="M178.092199,153 L142.907801,153 C141.302695,153 140,154.341 140,156 C140,157.659 141.302695,159 142.907801,159 L178.092199,159 C179.697305,159 181,157.659 181,156 C181,154.341 179.697305,153 178.092199,153" id="Fill-3"></path>
                <path d="M178.092199,173 L142.907801,173 C141.302695,173 140,174.341 140,176 C140,177.659 141.302695,179 142.907801,179 L178.092199,179 C179.697305,179 181,177.659 181,176 C181,174.341 179.697305,173 178.092199,173" id="Fill-5"></path>
                <path d="M178.092199,193 L142.907801,193 C141.302695,193 140,194.341 140,196 C140,197.659 141.302695,199 142.907801,199 L178.092199,199 C179.697305,199 181,197.659 181,196 C181,194.341 179.697305,193 178.092199,193" id="Fill-7"></path>
                <path d="M178.092199,212 L142.907801,212 C141.302695,212 140,213.341 140,215 C140,216.659 141.302695,218 142.907801,218 L178.092199,218 C179.697305,218 181,216.659 181,215 C181,213.341 179.697305,212 178.092199,212" id="Fill-9"></path>
                <path d="M178.092199,232 L142.907801,232 C141.302695,232 140,233.341 140,235 C140,236.659 141.302695,238 142.907801,238 L178.092199,238 C179.697305,238 181,236.659 181,235 C181,233.341 179.697305,232 178.092199,232" id="Fill-11"></path>
                <path d="M178.092199,252 L142.907801,252 C141.302695,252 140,253.341 140,255 C140,256.659 141.302695,258 142.907801,258 L178.092199,258 C179.697305,258 181,256.659 181,255 C181,253.341 179.697305,252 178.092199,252" id="Fill-13"></path>
                <path d="M225,88 C223.344,88 222,89.317962 222,90.9484609 L222,110.051539 C222,111.67909 223.344,113 225,113 C226.656,113 228,111.67909 228,110.051539 L228,90.9484609 C228,89.317962 226.656,88 225,88" id="Fill-15"></path>
                <path d="M246,88 C244.344,88 243,89.317962 243,90.9484609 L243,110.051539 C243,111.67909 244.344,113 246,113 C247.656,113 249,111.67909 249,110.051539 L249,90.9484609 C249,89.317962 247.656,88 246,88" id="Fill-17"></path>
                <path d="M266,88 C264.344,88 263,89.317962 263,90.9484609 L263,110.051539 C263,111.67909 264.344,113 266,113 C267.656,113 269,111.67909 269,110.051539 L269,90.9484609 C269,89.317962 267.656,88 266,88" id="Fill-19"></path>
                <path d="M225,124 C223.344,124 222,125.317962 222,126.948461 L222,146.051539 C222,147.67909 223.344,149 225,149 C226.656,149 228,147.67909 228,146.051539 L228,126.948461 C228,125.317962 226.656,124 225,124" id="Fill-21"></path>
                <path d="M246,124 C244.344,124 243,125.317962 243,126.948461 L243,146.051539 C243,147.67909 244.344,149 246,149 C247.656,149 249,147.67909 249,146.051539 L249,126.948461 C249,125.317962 247.656,124 246,124" id="Fill-23"></path>
                <path d="M266,124 C264.344,124 263,125.317962 263,126.948461 L263,146.051539 C263,147.67909 264.344,149 266,149 C267.656,149 269,147.67909 269,146.051539 L269,126.948461 C269,125.317962 267.656,124 266,124" id="Fill-25"></path>
                <path d="M299,124 C297.344,124 296,125.317962 296,126.948461 L296,146.051539 C296,147.67909 297.344,149 299,149 C300.656,149 302,147.67909 302,146.051539 L302,126.948461 C302,125.317962 300.656,124 299,124" id="Fill-27"></path>
                <path d="M313,124 C311.344,124 310,125.317962 310,126.948461 L310,146.051539 C310,147.67909 311.344,149 313,149 C314.656,149 316,147.67909 316,146.051539 L316,126.948461 C316,125.317962 314.656,124 313,124" id="Fill-29"></path>
                <path d="M225,160 C223.344,160 222,161.317962 222,162.948461 L222,182.051539 C222,183.67909 223.344,185 225,185 C226.656,185 228,183.67909 228,182.051539 L228,162.948461 C228,161.317962 226.656,160 225,160" id="Fill-31"></path>
                <path d="M246,160 C244.344,160 243,161.317962 243,162.948461 L243,182.051539 C243,183.67909 244.344,185 246,185 C247.656,185 249,183.67909 249,182.051539 L249,162.948461 C249,161.317962 247.656,160 246,160" id="Fill-33"></path>
                <path d="M266,160 C264.344,160 263,161.317962 263,162.948461 L263,182.051539 C263,183.67909 264.344,185 266,185 C267.656,185 269,183.67909 269,182.051539 L269,162.948461 C269,161.317962 267.656,160 266,160" id="Fill-35"></path>
                <path d="M225,195 C223.344,195 222,196.317962 222,197.948461 L222,217.051539 C222,218.67909 223.344,220 225,220 C226.656,220 228,218.67909 228,217.051539 L228,197.948461 C228,196.317962 226.656,195 225,195" id="Fill-37"></path>
                <path d="M246,195 C244.344,195 243,196.317962 243,197.948461 L243,217.051539 C243,218.67909 244.344,220 246,220 C247.656,220 249,218.67909 249,217.051539 L249,197.948461 C249,196.317962 247.656,195 246,195" id="Fill-39"></path>
                <path d="M266,195 C264.344,195 263,196.317962 263,197.948461 L263,217.051539 C263,218.67909 264.344,220 266,220 C267.656,220 269,218.67909 269,217.051539 L269,197.948461 C269,196.317962 267.656,195 266,195" id="Fill-41"></path>
                <path d="M419,251 C417.344,251 416,252.273202 416,253.848327 L416,260.151673 C416,261.726798 417.344,263 419,263 C420.656,263 422,261.726798 422,260.151673 L422,253.848327 C422,252.273202 420.656,251 419,251" id="Fill-43"></path>
                <path d="M400,251 C398.344,251 397,252.273202 397,253.848327 L397,260.151673 C397,261.726798 398.344,263 400,263 C401.656,263 403,261.726798 403,260.151673 L403,253.848327 C403,252.273202 401.656,251 400,251" id="Fill-45"></path>
                <path d="M419,228 C417.344,228 416,229.273202 416,230.848327 L416,237.151673 C416,238.726798 417.344,240 419,240 C420.656,240 422,238.726798 422,237.151673 L422,230.848327 C422,229.273202 420.656,228 419,228" id="Fill-47"></path>
                <path d="M400,228 C398.344,228 397,229.273202 397,230.848327 L397,237.151673 C397,238.726798 398.344,240 400,240 C401.656,240 403,238.726798 403,237.151673 L403,230.848327 C403,229.273202 401.656,228 400,228" id="Fill-49"></path>
                <path d="M419,206 C417.344,206 416,207.273202 416,208.848327 L416,215.151673 C416,216.726798 417.344,218 419,218 C420.656,218 422,216.726798 422,215.151673 L422,208.848327 C422,207.273202 420.656,206 419,206" id="Fill-51"></path>
                <path d="M400,206 C398.344,206 397,207.273202 397,208.848327 L397,215.151673 C397,216.726798 398.344,218 400,218 C401.656,218 403,216.726798 403,215.151673 L403,208.848327 C403,207.273202 401.656,206 400,206" id="Fill-53"></path>
                <path d="M419,183 C417.344,183 416,184.273202 416,185.848327 L416,192.151673 C416,193.726798 417.344,195 419,195 C420.656,195 422,193.726798 422,192.151673 L422,185.848327 C422,184.273202 420.656,183 419,183" id="Fill-55"></path>
                <path d="M400,183 C398.344,183 397,184.273202 397,185.848327 L397,192.151673 C397,193.726798 398.344,195 400,195 C401.656,195 403,193.726798 403,192.151673 L403,185.848327 C403,184.273202 401.656,183 400,183" id="Fill-57"></path>
                <path d="M419,161 C417.344,161 416,162.273202 416,163.848327 L416,170.151673 C416,171.726798 417.344,173 419,173 C420.656,173 422,171.726798 422,170.151673 L422,163.848327 C422,162.273202 420.656,161 419,161" id="Fill-59"></path>
                <path d="M400,161 C398.344,161 397,162.273202 397,163.848327 L397,170.151673 C397,171.726798 398.344,173 400,173 C401.656,173 403,171.726798 403,170.151673 L403,163.848327 C403,162.273202 401.656,161 400,161" id="Fill-61"></path>
                <path d="M435,94 C433.344,94 432,95.273202 432,96.8483266 L432,103.151673 C432,104.726798 433.344,106 435,106 C436.656,106 438,104.726798 438,103.151673 L438,96.8483266 C438,95.273202 436.656,94 435,94" id="Fill-63"></path>
                <path d="M447,106 C448.656,106 450,104.726798 450,103.151673 L450,96.8483266 C450,95.273202 448.656,94 447,94 C445.344,94 444,95.273202 444,96.8483266 L444,103.151673 C444,104.726798 445.344,106 447,106" id="Fill-65"></path>
                <path d="M460,106 C461.659,106 463,104.726798 463,103.151673 L463,96.8483266 C463,95.273202 461.659,94 460,94 C458.344,94 457,95.273202 457,96.8483266 L457,103.151673 C457,104.726798 458.344,106 460,106" id="Fill-67"></path>
                <path d="M435,113 C433.344,113 432,114.273202 432,115.848327 L432,122.151673 C432,123.726798 433.344,125 435,125 C436.656,125 438,123.726798 438,122.151673 L438,115.848327 C438,114.273202 436.656,113 435,113" id="Fill-69"></path>
                <path d="M447,125 C448.656,125 450,123.726798 450,122.151673 L450,115.848327 C450,114.273202 448.656,113 447,113 C445.344,113 444,114.273202 444,115.848327 L444,122.151673 C444,123.726798 445.344,125 447,125" id="Fill-71"></path>
                <path d="M460,125 C461.659,125 463,123.726798 463,122.151673 L463,115.848327 C463,114.273202 461.659,113 460,113 C458.344,113 457,114.273202 457,115.848327 L457,122.151673 C457,123.726798 458.344,125 460,125" id="Fill-73"></path>
                <path d="M447,144 C448.656,144 450,142.726798 450,141.151673 L450,134.848327 C450,133.273202 448.656,132 447,132 C445.344,132 444,133.273202 444,134.848327 L444,141.151673 C444,142.726798 445.344,144 447,144" id="Fill-75"></path>
                <path d="M460,144 C461.659,144 463,142.726798 463,141.151673 L463,134.848327 C463,133.273202 461.659,132 460,132 C458.344,132 457,133.273202 457,134.848327 L457,141.151673 C457,142.726798 458.344,144 460,144" id="Fill-77"></path>
                <path d="M447,163 C448.656,163 450,161.726798 450,160.151673 L450,153.848327 C450,152.273202 448.656,151 447,151 C445.344,151 444,152.273202 444,153.848327 L444,160.151673 C444,161.726798 445.344,163 447,163" id="Fill-79"></path>
                <path d="M460,163 C461.659,163 463,161.726798 463,160.151673 L463,153.848327 C463,152.273202 461.659,151 460,151 C458.344,151 457,152.273202 457,153.848327 L457,160.151673 C457,161.726798 458.344,163 460,163" id="Fill-81"></path>
                <path d="M447,183 C448.656,183 450,181.726496 450,180.150997 L450,173.849003 C450,172.273504 448.656,171 447,171 C445.344,171 444,172.273504 444,173.849003 L444,180.150997 C444,181.726496 445.344,183 447,183" id="Fill-83"></path>
                <path d="M88,181 C89.656,181 91,179.726798 91,178.151673 L91,171.848327 C91,170.273202 89.656,169 88,169 C86.344,169 85,170.273202 85,171.848327 L85,178.151673 C85,179.726798 86.344,181 88,181" id="Fill-85"></path>
                <path d="M102,181 C103.656,181 105,179.726798 105,178.151673 L105,171.848327 C105,170.273202 103.656,169 102,169 C100.344,169 99,170.273202 99,171.848327 L99,178.151673 C99,179.726798 100.344,181 102,181" id="Fill-87"></path>
                <path d="M88,202 C89.656,202 91,200.726798 91,199.151673 L91,192.848327 C91,191.273202 89.656,190 88,190 C86.344,190 85,191.273202 85,192.848327 L85,199.151673 C85,200.726798 86.344,202 88,202" id="Fill-89"></path>
                <path d="M102,202 C103.656,202 105,200.726798 105,199.151673 L105,192.848327 C105,191.273202 103.656,190 102,190 C100.344,190 99,191.273202 99,192.848327 L99,199.151673 C99,200.726798 100.344,202 102,202" id="Fill-91"></path>
                <path d="M88,224 C89.656,224 91,222.726798 91,221.151673 L91,214.848327 C91,213.273202 89.656,212 88,212 C86.344,212 85,213.273202 85,214.848327 L85,221.151673 C85,222.726798 86.344,224 88,224" id="Fill-93"></path>
                <path d="M102,224 C103.656,224 105,222.726798 105,221.151673 L105,214.848327 C105,213.273202 103.656,212 102,212 C100.344,212 99,213.273202 99,214.848327 L99,221.151673 C99,222.726798 100.344,224 102,224" id="Fill-95"></path>
                <path d="M95,253 C93.344,253 92,254.273202 92,255.848327 L92,262.151673 C92,263.726798 93.344,265 95,265 C96.656,265 98,263.726798 98,262.151673 L98,255.848327 C98,254.273202 96.656,253 95,253" id="Fill-97"></path>
                <path d="M105,253 C103.344,253 102,254.273202 102,255.848327 L102,262.151673 C102,263.726798 103.344,265 105,265 C106.656,265 108,263.726798 108,262.151673 L108,255.848327 C108,254.273202 106.656,253 105,253" id="Fill-99"></path>
                <path d="M460,183 C461.659,183 463,181.726496 463,180.150997 L463,173.849003 C463,172.273504 461.659,171 460,171 C458.344,171 457,172.273504 457,173.849003 L457,180.150997 C457,181.726496 458.344,183 460,183" id="Fill-101"></path>
                <path d="M521,142 C519.341,142 518,143.273202 518,144.848327 L518,151.151673 C518,152.726798 519.341,154 521,154 C522.659,154 524,152.726798 524,151.151673 L524,144.848327 C524,143.273202 522.659,142 521,142" id="Fill-103"></path>
                <path d="M534,142 C532.341,142 531,143.273202 531,144.848327 L531,151.151673 C531,152.726798 532.341,154 534,154 C535.659,154 537,152.726798 537,151.151673 L537,144.848327 C537,143.273202 535.659,142 534,142" id="Fill-105"></path>
                <path d="M546,142 C544.341,142 543,143.273202 543,144.848327 L543,151.151673 C543,152.726798 544.341,154 546,154 C547.659,154 549,152.726798 549,151.151673 L549,144.848327 C549,143.273202 547.659,142 546,142" id="Fill-107"></path>
                <path d="M521,168 C519.341,168 518,169.273202 518,170.848327 L518,177.151673 C518,178.726798 519.341,180 521,180 C522.659,180 524,178.726798 524,177.151673 L524,170.848327 C524,169.273202 522.659,168 521,168" id="Fill-109"></path>
                <path d="M534,168 C532.341,168 531,169.273202 531,170.848327 L531,177.151673 C531,178.726798 532.341,180 534,180 C535.659,180 537,178.726798 537,177.151673 L537,170.848327 C537,169.273202 535.659,168 534,168" id="Fill-111"></path>
                <path d="M546,168 C544.341,168 543,169.273202 543,170.848327 L543,177.151673 C543,178.726798 544.341,180 546,180 C547.659,180 549,178.726798 549,177.151673 L549,170.848327 C549,169.273202 547.659,168 546,168" id="Fill-113"></path>
                <path d="M521,193 C519.341,193 518,194.273202 518,195.848327 L518,202.151673 C518,203.726798 519.341,205 521,205 C522.659,205 524,203.726798 524,202.151673 L524,195.848327 C524,194.273202 522.659,193 521,193" id="Fill-115"></path>
                <path d="M534,193 C532.341,193 531,194.273202 531,195.848327 L531,202.151673 C531,203.726798 532.341,205 534,205 C535.659,205 537,203.726798 537,202.151673 L537,195.848327 C537,194.273202 535.659,193 534,193" id="Fill-117"></path>
                <path d="M546,193 C544.341,193 543,194.273202 543,195.848327 L543,202.151673 C543,203.726798 544.341,205 546,205 C547.659,205 549,203.726798 549,202.151673 L549,195.848327 C549,194.273202 547.659,193 546,193" id="Fill-119"></path>
                <path d="M521,219 C519.341,219 518,220.273202 518,221.848327 L518,228.151673 C518,229.726798 519.341,231 521,231 C522.659,231 524,229.726798 524,228.151673 L524,221.848327 C524,220.273202 522.659,219 521,219" id="Fill-121"></path>
                <path d="M534,219 C532.341,219 531,220.273202 531,221.848327 L531,228.151673 C531,229.726798 532.341,231 534,231 C535.659,231 537,229.726798 537,228.151673 L537,221.848327 C537,220.273202 535.659,219 534,219" id="Fill-123"></path>
                <path d="M672,208 C670.341,208 669,209.273202 669,210.848327 L669,217.151673 C669,218.726798 670.341,220 672,220 C673.659,220 675,218.726798 675,217.151673 L675,210.848327 C675,209.273202 673.659,208 672,208" id="Fill-125"></path>
                <path d="M691,208 C689.341,208 688,209.273202 688,210.848327 L688,217.151673 C688,218.726798 689.341,220 691,220 C692.659,220 694,218.726798 694,217.151673 L694,210.848327 C694,209.273202 692.659,208 691,208" id="Fill-127"></path>
                <path d="M709,208 C707.341,208 706,209.273202 706,210.848327 L706,217.151673 C706,218.726798 707.341,220 709,220 C710.659,220 712,218.726798 712,217.151673 L712,210.848327 C712,209.273202 710.659,208 709,208" id="Fill-129"></path>
                <path d="M727,208 C725.341,208 724,209.273202 724,210.848327 L724,217.151673 C724,218.726798 725.341,220 727,220 C728.659,220 730,218.726798 730,217.151673 L730,210.848327 C730,209.273202 728.659,208 727,208" id="Fill-131"></path>
                <path d="M746,208 C744.341,208 743,209.273202 743,210.848327 L743,217.151673 C743,218.726798 744.341,220 746,220 C747.659,220 749,218.726798 749,217.151673 L749,210.848327 C749,209.273202 747.659,208 746,208" id="Fill-133"></path>
                <path d="M672,226 C670.341,226 669,227.273202 669,228.848327 L669,235.151673 C669,236.726798 670.341,238 672,238 C673.659,238 675,236.726798 675,235.151673 L675,228.848327 C675,227.273202 673.659,226 672,226" id="Fill-135"></path>
                <path d="M691,226 C689.341,226 688,227.273202 688,228.848327 L688,235.151673 C688,236.726798 689.341,238 691,238 C692.659,238 694,236.726798 694,235.151673 L694,228.848327 C694,227.273202 692.659,226 691,226" id="Fill-137"></path>
                <path d="M709,226 C707.341,226 706,227.273202 706,228.848327 L706,235.151673 C706,236.726798 707.341,238 709,238 C710.659,238 712,236.726798 712,235.151673 L712,228.848327 C712,227.273202 710.659,226 709,226" id="Fill-139"></path>
                <path d="M727,226 C725.341,226 724,227.273202 724,228.848327 L724,235.151673 C724,236.726798 725.341,238 727,238 C728.659,238 730,236.726798 730,235.151673 L730,228.848327 C730,227.273202 728.659,226 727,226" id="Fill-141"></path>
                <path d="M746,226 C744.341,226 743,227.273202 743,228.848327 L743,235.151673 C743,236.726798 744.341,238 746,238 C747.659,238 749,236.726798 749,235.151673 L749,228.848327 C749,227.273202 747.659,226 746,226" id="Fill-143"></path>
                <path d="M672,245 C670.341,245 669,246.273202 669,247.848327 L669,254.151673 C669,255.726798 670.341,257 672,257 C673.659,257 675,255.726798 675,254.151673 L675,247.848327 C675,246.273202 673.659,245 672,245" id="Fill-145"></path>
                <path d="M691,245 C689.341,245 688,246.273202 688,247.848327 L688,254.151673 C688,255.726798 689.341,257 691,257 C692.659,257 694,255.726798 694,254.151673 L694,247.848327 C694,246.273202 692.659,245 691,245" id="Fill-147"></path>
                <path d="M709,245 C707.341,245 706,246.273202 706,247.848327 L706,254.151673 C706,255.726798 707.341,257 709,257 C710.659,257 712,255.726798 712,254.151673 L712,247.848327 C712,246.273202 710.659,245 709,245" id="Fill-149"></path>
                <path d="M727,245 C725.341,245 724,246.273202 724,247.848327 L724,254.151673 C724,255.726798 725.341,257 727,257 C728.659,257 730,255.726798 730,254.151673 L730,247.848327 C730,246.273202 728.659,245 727,245" id="Fill-151"></path>
                <path d="M746,245 C744.341,245 743,246.273202 743,247.848327 L743,254.151673 C743,255.726798 744.341,257 746,257 C747.659,257 749,255.726798 749,254.151673 L749,247.848327 C749,246.273202 747.659,245 746,245" id="Fill-153"></path>
                <path d="M546,219 C544.341,219 543,220.273202 543,221.848327 L543,228.151673 C543,229.726798 544.341,231 546,231 C547.659,231 549,229.726798 549,228.151673 L549,221.848327 C549,220.273202 547.659,219 546,219" id="Fill-155"></path>
                <path d="M521,244 C519.341,244 518,245.273504 518,246.849003 L518,253.150997 C518,254.726496 519.341,256 521,256 C522.659,256 524,254.726496 524,253.150997 L524,246.849003 C524,245.273504 522.659,244 521,244" id="Fill-157"></path>
                <path d="M534,244 C532.341,244 531,245.273504 531,246.849003 L531,253.150997 C531,254.726496 532.341,256 534,256 C535.659,256 537,254.726496 537,253.150997 L537,246.849003 C537,245.273504 535.659,244 534,244" id="Fill-159"></path>
                <path d="M546,244 C544.341,244 543,245.273504 543,246.849003 L543,253.150997 C543,254.726496 544.341,256 546,256 C547.659,256 549,254.726496 549,253.150997 L549,246.849003 C549,245.273504 547.659,244 546,244" id="Fill-161"></path>
                <path d="M225,231 C223.344,231 222,232.317962 222,233.948461 L222,253.051539 C222,254.67909 223.344,256 225,256 C226.656,256 228,254.67909 228,253.051539 L228,233.948461 C228,232.317962 226.656,231 225,231" id="Fill-163"></path>
                <path d="M246,231 C244.344,231 243,232.317962 243,233.948461 L243,253.051539 C243,254.67909 244.344,256 246,256 C247.656,256 249,254.67909 249,253.051539 L249,233.948461 C249,232.317962 247.656,231 246,231" id="Fill-165"></path>
                <path d="M266,231 C264.344,231 263,232.317962 263,233.948461 L263,253.051539 C263,254.67909 264.344,256 266,256 C267.656,256 269,254.67909 269,253.051539 L269,233.948461 C269,232.317962 267.656,231 266,231" id="Fill-167"></path>
                <path d="M476,126 C476,127.659 477.293947,129 478.894737,129 L495.105263,129 C496.703158,129 498,127.659 498,126 C498,124.341 496.703158,123 495.105263,123 L478.894737,123 C477.293947,123 476,124.341 476,126" id="Fill-169"></path>
                <path d="M495.105263,136 L478.894737,136 C477.296842,136 476,137.341 476,139 C476,140.659 477.296842,142 478.894737,142 L495.105263,142 C496.706053,142 498,140.659 498,139 C498,137.341 496.706053,136 495.105263,136" id="Fill-171"></path>
                <path d="M495.105263,149 L478.894737,149 C477.296842,149 476,150.341 476,152 C476,153.659 477.296842,155 478.894737,155 L495.105263,155 C496.706053,155 498,153.659 498,152 C498,150.341 496.706053,149 495.105263,149" id="Fill-173"></path>
                <path d="M495.105263,162 L478.894737,162 C477.296842,162 476,163.341 476,165 C476,166.659 477.296842,168 478.894737,168 L495.105263,168 C496.706053,168 498,166.659 498,165 C498,163.341 496.706053,162 495.105263,162" id="Fill-175"></path>
                <path d="M495.105263,175 L478.894737,175 C477.296842,175 476,176.341 476,178 C476,179.659 477.296842,181 478.894737,181 L495.105263,181 C496.706053,181 498,179.659 498,178 C498,176.341 496.706053,175 495.105263,175" id="Fill-177"></path>
                <path d="M495.105263,188 L478.894737,188 C477.296842,188 476,189.341 476,191 C476,192.659 477.296842,194 478.894737,194 L495.105263,194 C496.706053,194 498,192.659 498,191 C498,189.341 496.706053,188 495.105263,188" id="Fill-179"></path>
                <path d="M644,127.89391 C645.714566,127.89391 647.10802,129.287819 647.10802,131 C647.10802,132.715128 645.714566,134.10609 644,134.10609 C642.285434,134.10609 640.89198,132.715128 640.89198,131 C640.89198,129.287819 642.285434,127.89391 644,127.89391 M644,140 C648.963993,140 653,135.962672 653,131 C653,126.037328 648.963993,122 644,122 C639.036007,122 635,126.037328 635,131 C635,135.962672 639.036007,140 644,140" id="Fill-181"></path>
                <path d="M669.998537,104.852231 C674.49305,104.852231 678.147769,108.50695 678.147769,112.998537 C678.147769,117.49305 674.49305,121.147769 669.998537,121.147769 C665.50695,121.147769 661.852231,117.49305 661.852231,112.998537 C661.852231,108.50695 665.50695,104.852231 669.998537,104.852231 M669.998537,127 C677.720556,127 684,120.720556 684,112.998537 C684,105.279444 677.720556,99 669.998537,99 C662.279444,99 656,105.279444 656,112.998537 C656,120.720556 662.279444,127 669.998537,127" id="Fill-183"></path>
                <path d="M659.372659,273.118599 L655.704971,195.007711 C655.70791,195.007711 655.713787,195.007711 655.716726,195.004771 L688.170472,175.243263 L688.170472,192.39931 C688.170472,193.460903 688.743548,194.440156 689.669287,194.963601 C690.595025,195.484105 691.732361,195.46352 692.634589,194.910668 L724.944331,175.243263 L724.944331,192.39931 C724.944331,193.460903 725.517407,194.440156 726.440207,194.963601 C727.368884,195.484105 728.50622,195.46352 729.408448,194.910668 L761.712312,175.243263 L761.712312,273.118599 L659.372659,273.118599 Z M636.126337,153.843785 L647.887624,153.843785 L653.489076,273.118599 L630.524884,273.118599 L636.126337,153.843785 Z M602.685136,273.118599 L615.272241,273.118599 L615.272241,250.595774 L602.685136,250.595774 L602.685136,273.118599 Z M585.895473,273.118599 L596.807432,273.118599 L596.807432,250.595774 L585.895473,250.595774 L585.895473,273.118599 Z M564.826841,212.975392 L615.272241,212.975392 L615.272241,244.714372 L582.956621,244.714372 C581.331436,244.714372 580.017769,246.028866 580.017769,247.655073 L580.017769,273.118599 L564.826841,273.118599 L564.826841,212.975392 Z M510.040756,129.206596 L544.366551,129.206596 C544.372429,129.206596 544.375368,129.209537 544.381246,129.209537 C544.387123,129.209537 544.390062,129.206596 544.39594,129.206596 L558.949136,129.206596 L558.949136,210.034691 L558.949136,273.118599 L510.040756,273.118599 L510.040756,129.206596 Z M458.552064,273.118599 L504.163052,273.118599 L504.163052,259.235552 L458.552064,259.235552 L458.552064,273.118599 Z M384.819198,273.118599 L384.819198,185.897421 L384.819198,127.745068 L434.26245,152.714556 L434.26245,273.118599 L384.819198,273.118599 Z M325.736512,273.118599 L378.941494,273.118599 L378.941494,259.235552 L325.736512,259.235552 L325.736512,273.118599 Z M303.313069,165.306636 L342.279311,165.306636 L342.279311,182.95672 L322.797659,182.95672 C321.172474,182.95672 319.858807,184.271214 319.858807,185.897421 L319.858807,273.118599 L303.313069,273.118599 L303.313069,165.306636 Z M209.637151,70.6660704 L282.021084,70.6660704 L282.021084,103.937156 L282.021084,273.118599 L209.637151,273.118599 L209.637151,70.6660704 Z M134.058687,273.118599 L187.692741,273.118599 L187.692741,119.834583 L134.058687,119.834583 L134.058687,273.118599 Z M86.0760452,273.118599 L86.0760452,254.412803 C86.0760452,252.786595 84.7594393,251.472102 83.1371929,251.472102 L71.7667733,251.472102 C70.1445268,251.472102 68.827921,252.786595 68.827921,254.412803 L68.827921,273.118599 L65.604,273.118599 L65.604,243.626313 L113.604275,243.626313 L113.604275,273.118599 L86.0760452,273.118599 Z M74.7056256,273.118599 L80.1983405,273.118599 L80.1983405,257.353503 L74.7056256,257.353503 L74.7056256,273.118599 Z M32.3273754,182.900847 L71.1202258,182.900847 L71.1202258,226.926075 L57.466318,226.926075 C55.8440715,226.926075 54.5274657,228.240568 54.5274657,229.866775 L54.5274657,240.535637 C54.5274657,242.161844 55.8440715,243.476338 57.466318,243.476338 L59.7262954,243.476338 L59.7262954,273.118599 L32.3273754,273.118599 L32.3273754,182.900847 Z M24.6187658,171.99967 L71.1202258,171.99967 L71.1202258,177.019446 L29.388523,177.019446 L24.6187658,177.019446 L24.6187658,171.99967 Z M113.498476,161.783677 L113.498476,226.440859 L76.9979304,226.440859 L76.9979304,179.960147 L76.9979304,169.05897 L76.9979304,161.783677 L113.498476,161.783677 Z M70.8998119,150.567845 L119.390875,150.567845 L119.390875,155.902276 L116.437328,155.902276 L74.0590781,155.902276 L70.8998119,155.902276 L70.8998119,150.567845 Z M60.4051703,237.594936 L118.806043,237.594936 L118.806043,232.807476 L60.4051703,232.807476 L60.4051703,237.594936 Z M159.185874,93.9211303 L203.759447,93.9211303 L203.759447,273.118599 L193.570446,273.118599 L193.570446,116.893883 C193.570446,115.267675 192.256779,113.953182 190.631594,113.953182 L159.185874,113.953182 L159.185874,93.9211303 Z M306.128489,84.7726109 C315.688576,84.7726109 323.611722,91.8244108 325.031187,100.996456 L287.898788,100.996456 L287.898788,98.1292727 C290.405629,90.2540767 297.835048,84.7726109 306.128489,84.7726109 Z M300.374216,159.425235 C298.75197,159.425235 297.435364,160.739728 297.435364,162.365935 L297.435364,273.118599 L287.898788,273.118599 L287.898788,106.877857 L330.512147,106.877857 L330.512147,159.425235 L300.374216,159.425235 Z M325.736512,253.354151 L378.941494,253.354151 L378.941494,241.279634 L325.736512,241.279634 L325.736512,253.354151 Z M325.736512,235.395292 L378.941494,235.395292 L378.941494,223.317835 L325.736512,223.317835 L325.736512,235.395292 Z M325.736512,217.436434 L378.941494,217.436434 L378.941494,205.358977 L325.736512,205.358977 L325.736512,217.436434 Z M325.736512,199.477576 L378.941494,199.477576 L378.941494,188.838122 L325.736512,188.838122 L325.736512,199.477576 Z M348.157016,35.7511329 L393.809148,8.1526584 L393.809148,125.69834 L383.205769,120.343325 C382.291786,119.878694 381.207349,119.925745 380.340388,120.463893 C379.470487,120.999101 378.941494,121.946006 378.941494,122.966429 L378.941494,182.95672 L348.157016,182.95672 L348.157016,162.365935 L348.157016,35.7511329 Z M425.563447,70.3602376 L475.009637,88.2691038 L475.009637,105.978002 L469.816685,105.978002 C468.1915,105.978002 466.877833,107.292496 466.877833,108.918703 L466.877833,202.365344 L455.613212,202.365344 C453.990965,202.365344 452.674359,203.682778 452.674359,205.306045 L452.674359,273.118599 L440.140154,273.118599 L440.140154,150.903085 C440.140154,149.79444 439.514179,148.779899 438.526724,148.27998 L425.563447,141.73398 L425.563447,70.3602376 Z M458.552064,253.354151 L504.163052,253.354151 L504.163052,241.279634 L458.552064,241.279634 L458.552064,253.354151 Z M458.552064,235.395292 L504.163052,235.395292 L504.163052,223.317835 L458.552064,223.317835 L458.552064,235.395292 Z M458.552064,217.436434 L504.163052,217.436434 L504.163052,208.246745 L458.552064,208.246745 L458.552064,217.436434 Z M541.442393,123.325195 L507.101904,123.325195 C505.476719,123.325195 504.163052,124.642629 504.163052,126.265895 L504.163052,202.365344 L472.755537,202.365344 L472.755537,111.859404 L541.442393,111.859404 L541.442393,123.325195 Z M590.05101,185.362213 C602.767424,185.362213 613.285577,194.83421 614.998928,207.09399 L565.100154,207.09399 C566.816444,194.83421 577.334596,185.362213 590.05101,185.362213 Z M10.4975804,245.717151 C10.4975804,244.026249 11.8700245,242.652941 13.5598645,242.652941 L13.8919548,242.652941 C15.5817949,242.652941 16.9542389,244.026249 16.9542389,245.717151 L16.9542389,256.059595 C16.9542389,257.747557 15.5817949,259.123805 13.8919548,259.123805 L13.5598645,259.123805 C11.8700245,259.123805 10.4975804,257.747557 10.4975804,256.059595 L10.4975804,245.717151 Z M36.5269953,165.874191 L41.546555,165.874191 L41.546555,160.854415 L36.5269953,160.854415 L36.5269953,165.874191 Z M78.2087375,144.595282 L112.287669,144.595282 L112.287669,139.263792 L78.2087375,139.263792 L78.2087375,144.595282 Z M778.061148,273.118599 L767.590017,273.118599 L767.590017,170.008816 C767.590017,168.947223 767.016941,167.96797 766.091202,167.444525 C765.168403,166.932843 764.031067,166.947547 763.1259,167.497458 L730.822036,187.164863 L730.822036,170.008816 C730.822036,168.947223 730.246021,167.96797 729.323221,167.444525 C728.394544,166.932843 727.263086,166.947547 726.35498,167.497458 L694.048177,187.164863 L694.048177,170.008816 C694.048177,168.947223 693.475101,167.96797 692.549362,167.444525 C691.626563,166.932843 690.489227,166.947547 689.581121,167.497458 L655.390514,188.317618 L653.627202,150.767812 C653.553731,149.197478 652.260636,147.962384 650.691289,147.962384 L633.322672,147.962384 C631.753325,147.962384 630.46023,149.197478 630.386758,150.767812 L624.641302,273.118599 L621.149945,273.118599 L621.149945,247.655073 L621.149945,210.034691 C621.149945,209.964114 621.114679,209.911182 621.11174,209.843545 C620.706179,193.037442 606.943533,179.480812 590.05101,179.480812 C579.668045,179.480812 570.478254,184.618216 564.826841,192.464005 L564.826841,126.265895 C564.826841,124.642629 563.513174,123.325195 561.887989,123.325195 L547.320098,123.325195 L547.320098,108.918703 C547.320098,107.292496 546.006431,105.978002 544.381246,105.978002 L480.887341,105.978002 L480.887341,86.2047321 C480.887341,84.9696378 480.111484,83.8639344 478.947699,83.4404736 L423.626743,63.4025401 C422.727454,63.0731816 421.722367,63.2055132 420.937693,63.7613056 C420.15302,64.3082759 419.685742,65.2081302 419.685742,66.1667986 L419.685742,138.763873 L399.686852,128.665507 L399.686852,2.94173704 C399.686852,1.88308485 399.116715,0.903831571 398.190976,0.380386876 C397.271116,-0.140117119 396.139658,-0.128354317 395.228613,0.427438084 L343.695838,31.5753382 C342.817121,32.107605 342.279311,33.0603919 342.279311,34.0925778 L342.279311,159.425235 L336.389851,159.425235 L336.389851,103.937156 C336.389851,102.310949 335.073246,100.996456 333.450999,100.996456 L330.970608,100.996456 C329.621675,89.5218423 320.502416,80.4086113 309.032075,79.076474 C309.035014,79.0088378 309.067341,78.9588459 309.067341,78.8912098 L309.067341,67.7253699 C309.067341,66.1021032 307.750736,64.7846693 306.128489,64.7846693 C304.506243,64.7846693 303.189637,66.1021032 303.189637,67.7253699 L303.189637,78.8912098 C303.189637,78.9617866 303.224903,79.0176599 303.227842,79.0852961 C297.311932,79.7881235 291.892689,82.5964925 287.898788,86.834042 L287.898788,67.7253699 C287.898788,66.1021032 286.582183,64.7846693 284.959936,64.7846693 L206.698299,64.7846693 C205.076053,64.7846693 203.759447,66.1021032 203.759447,67.7253699 L203.759447,88.0397292 L156.247022,88.0397292 C154.624775,88.0397292 153.308169,89.357163 153.308169,90.9804297 L153.308169,113.953182 L131.119834,113.953182 C129.497588,113.953182 128.180982,115.267675 128.180982,116.893883 L128.180982,273.118599 L119.481979,273.118599 L119.481979,243.476338 L121.744896,243.476338 C123.367142,243.476338 124.683748,242.161844 124.683748,240.535637 L124.683748,229.866775 C124.683748,228.240568 123.367142,226.926075 121.744896,226.926075 L119.376181,226.926075 L119.376181,161.783677 L122.329727,161.783677 C123.951974,161.783677 125.268579,160.466243 125.268579,158.842976 L125.268579,147.627144 C125.268579,146.000937 123.951974,144.686444 122.329727,144.686444 L118.165373,144.686444 L118.165373,136.323091 C118.165373,134.699825 116.848768,133.382391 115.226521,133.382391 L75.2698852,133.382391 C73.6476388,133.382391 72.3310329,134.699825 72.3310329,136.323091 L72.3310329,144.686444 L67.9609595,144.686444 C66.3357742,144.686444 65.0221072,146.000937 65.0221072,147.627144 L65.0221072,158.842976 C65.0221072,160.466243 66.3357742,161.783677 67.9609595,161.783677 L71.1202258,161.783677 L71.1202258,166.118269 L47.4213208,166.118269 L47.4213208,157.913715 C47.4213208,156.287507 46.1076538,154.973014 44.4824685,154.973014 L33.588143,154.973014 C31.9658965,154.973014 30.6492907,156.287507 30.6492907,157.913715 L30.6492907,166.118269 L21.6799135,166.118269 C20.057667,166.118269 18.7410611,167.435703 18.7410611,169.05897 L18.7410611,179.960147 C18.7410611,181.586354 20.057667,182.900847 21.6799135,182.900847 L26.4496707,182.900847 L26.4496707,273.118599 L16.4987168,273.118599 L16.4987168,264.572923 C20.1517103,263.449576 22.8319436,260.079533 22.8319436,256.059595 L22.8319436,245.717151 C22.8319436,240.782656 18.823349,236.77154 13.8919548,236.77154 L13.5598645,236.77154 C8.62847037,236.77154 4.61987582,240.782656 4.61987582,245.717151 L4.61987582,256.059595 C4.61987582,259.956023 7.1355334,263.246667 10.6210122,264.469999 L10.6210122,273.118599 L2.9388523,273.118599 C1.31366698,273.118599 0,274.433092 0,276.059299 C0,277.685507 1.31366698,279 2.9388523,279 L62.6651477,279 L71.7667733,279 L83.1371929,279 L116.543127,279 L131.119834,279 L190.631594,279 L206.698299,279 L284.959936,279 L300.374216,279 L322.797659,279 L381.880346,279 L437.201302,279 L455.613212,279 L507.098965,279 L507.101904,279 L561.887989,279 L582.956621,279 L618.211093,279 L627.444967,279 L654.188523,279 L656.568993,279 L764.651165,279 L778.061148,279 C779.683394,279 781,277.685507 781,276.059299 C781,274.433092 779.683394,273.118599 778.061148,273.118599 Z" id="Fill-185"></path>
                <path d="M9.89189189,42.6188286 C9.89189189,36.3774952 13.8836486,30.9451143 19.8285676,29.0998762 C20.8861622,28.7721619 21.6727297,27.8746381 21.8583243,26.7763524 C23.6347297,16.3633048 32.5727297,8.80520952 43.1133243,8.80520952 C50.3986486,8.80520952 57.1448649,12.4602571 61.1601892,18.5834952 C61.9732703,19.8205429 63.569973,20.2634 64.8985946,19.6227333 C67.3614054,18.4388286 69.9715135,17.8335905 72.6523243,17.8335905 C82.5536486,17.8335905 90.6049189,25.9054 90.6049189,35.8254 C90.6049189,36.421781 90.5725135,37.0152095 90.5165405,37.5968286 C90.4193243,38.5740667 90.817027,39.5365429 91.5741351,40.1624476 C92.3282973,40.7883524 93.3505405,40.995019 94.2844054,40.7145429 C95.1740811,40.451781 95.9105676,40.327781 96.6028649,40.327781 C101.124892,40.327781 104.804378,44.0153048 104.804378,48.5501619 C104.804378,53.0820667 101.124892,56.7695905 96.6028649,56.7695905 L24.0118108,56.7695905 C16.2256757,56.7695905 9.89189189,50.4219714 9.89189189,42.6188286 M110.69627,48.5501619 C110.69627,40.7588286 104.37427,34.423019 96.6028649,34.423019 L96.4555676,34.423019 C95.7279189,21.8960667 85.3287297,11.9288286 72.6523243,11.9288286 C69.9037568,11.9288286 67.2170541,12.4041619 64.6393514,13.3341619 C59.4397568,6.75920952 51.5622973,2.90044762 43.1133243,2.90044762 C30.2807838,2.90044762 19.313027,11.6985429 16.3994865,24.0660667 C8.91383784,27.1306381 4,34.375781 4,42.6188286 C4,53.6784476 12.9762973,62.6743524 24.0118108,62.6743524 L96.6028649,62.6743524 C104.37427,62.6743524 110.69627,56.3355905 110.69627,48.5501619" id="Fill-187"></path>
            </g>
        </g>
    </g>
</svg>