<?xml version="1.0" encoding="UTF-8"?>
<svg width="20px" height="19px" viewBox="0 0 20 19" version="1.1" xmlns="http://www.w3.org/2000/svg" xmlns:xlink="http://www.w3.org/1999/xlink">
    <!-- Generator: Sketch 49.2 (51160) - http://www.bohemiancoding.com/sketch -->
    <title>ICON - LINK DARK</title>
    <desc>Created with Sketch.</desc>
    <defs></defs>
    <g id="Symbols" stroke="none" stroke-width="1" fill="none" fill-rule="evenodd">
        <g id="CTA---External-link-dark" transform="translate(-155.000000, -17.000000)" fill="#007299" fill-rule="nonzero" stroke="#007299">
            <g id="ICON---LINK-DARK" transform="translate(156.000000, 18.000000)">
                <path d="M7.38546916e-06,0.56721946 L7.38546916e-06,16.4333263 C7.38546916e-06,16.746168 0.253835267,17 0.566671803,17 L16.4332755,17 C16.746112,17 16.9999399,16.746168 16.9999399,16.4333263 L16.9999399,10.6248961 C17.0021535,10.473635 16.9431261,10.3275446 16.8368766,10.2190833 C16.730627,10.1113567 16.5852776,10.050853 16.4332793,10.050853 C16.281281,10.050853 16.1359316,10.1113567 16.029682,10.2190833 C15.9234324,10.3275484 15.8644049,10.473652 15.8666186,10.6256339 L15.8666186,15.8673905 L1.13334378,15.8673905 L1.13334378,1.13463093 L6.3749812,1.13463093 C6.5269776,1.13610673 6.67306558,1.07707842 6.78078848,0.970827107 C6.88925183,0.864575796 6.94975459,0.719224002 6.94975459,0.567223238 C6.94975459,0.415224362 6.88925183,0.26987068 6.78078848,0.163619369 C6.67306369,0.0573680579 6.5269606,-0.00166044827 6.3749812,0.000553356828 L0.566679358,0.000553356828 C0.546757326,-0.000184452276 0.527573847,-0.000184452276 0.507651815,0.000553356828 C0.217663188,0.0307986189 -0.00146594202,0.275760308 7.38546916e-06,0.56721946 Z M12.0453448,0.584993058 C12.0612516,0.89168055 12.323111,1.12750142 12.6298018,1.11159485 L16.1018787,1.11159485 L8.16239629,9.05024928 C7.94538686,9.26797851 7.94610905,9.62023767 8.16311959,9.83724471 C8.38013014,10.0542518 8.73166986,10.0542518 8.94940149,9.83724471 L16.8888839,1.89859029 L16.8888839,5.37062897 C16.8867138,5.51891373 16.9445816,5.66213208 17.0487439,5.7684598 C17.1529062,5.87406718 17.2954002,5.93410474 17.4444125,5.93410474 C17.5934248,5.93410474 17.7359188,5.87406718 17.8400811,5.7684598 C17.9442434,5.66212838 18.0021114,5.51889891 17.9999411,5.37062897 L17.9999411,0.556068661 C17.9999411,0.249381169 17.7510996,0.000542471324 17.4444088,0.000542471324 L12.6297955,0.000542471324 C12.6102649,-0.000180823775 12.5914583,-0.000180823775 12.5719276,0.000542471324 C12.2652615,0.0164560746 12.0294381,0.278305566 12.0453448,0.584993058 Z" id="Shape"></path>
            </g>
        </g>
    </g>
</svg>