<?xml version="1.0" encoding="UTF-8"?>
<svg width="13px" height="13px" viewBox="0 0 13 13" version="1.1" xmlns="http://www.w3.org/2000/svg" xmlns:xlink="http://www.w3.org/1999/xlink">
    <!-- Generator: Sketch 49.2 (51160) - http://www.bohemiancoding.com/sketch -->
    <title>np_plus_224049_000000 copy 3</title>
    <desc>Created with Sketch.</desc>
    <defs></defs>
    <g id="Mobile" stroke="none" stroke-width="1" fill="none" fill-rule="evenodd">
        <g id="13.0---Detailed-Ratings-Collapsed---MOBILE" transform="translate(-31.000000, -1223.000000)" fill="#007299" fill-rule="nonzero">
            <g id="Group-10" transform="translate(17.000000, 1203.000000)">
                <g id="np_plus_224049_000000-copy-3" transform="translate(14.000000, 20.000000)">
                    <path d="M12.0714286,5.57142857 L7.42857143,5.57142857 L7.42857143,0.928571429 C7.42857143,0.417733333 7.0108381,0 6.5,0 C5.9891619,0 5.57142857,0.417733333 5.57142857,0.928571429 L5.57142857,5.57142857 L0.928571429,5.57142857 C0.417733333,5.57142857 0,5.9891619 0,6.5 C0,7.0108381 0.417733333,7.42857143 0.928571429,7.42857143 L5.57142857,7.42857143 L5.57142857,12.0714286 C5.57142857,12.5822667 5.9891619,13 6.5,13 C7.0108381,13 7.42857143,12.5822667 7.42857143,12.0714286 L7.42857143,7.42857143 L12.0714286,7.42857143 C12.5822667,7.42857143 13,7.0108381 13,6.5 C13,5.9891619 12.5822667,5.57142857 12.0714286,5.57142857 Z" id="Shape"></path>
                </g>
            </g>
        </g>
    </g>
</svg>