<?xml version="1.0" encoding="UTF-8"?>
<svg width="19px" height="19px" viewBox="0 0 19 19" version="1.1" xmlns="http://www.w3.org/2000/svg" xmlns:xlink="http://www.w3.org/1999/xlink">
    <!-- Generator: Sketch 49.2 (51160) - http://www.bohemiancoding.com/sketch -->
    <title>np_share_1264949_000000</title>
    <desc>Created with Sketch.</desc>
    <defs></defs>
    <g id="Mobile" stroke="none" stroke-width="1" fill="none" fill-rule="evenodd">
        <g id="12.1-Find-a-Rated-Building---MOBILE" transform="translate(-180.000000, -846.000000)" fill="#007299" fill-rule="nonzero">
            <g id="np_share_1264949_000000" transform="translate(180.000000, 846.000000)">
                <g id="ICON---SHARE">
                    <path d="M2.88129412,16.1187059 C-0.773970588,12.4634412 -0.773970588,6.53683824 2.88129412,2.88157353 C6.53655882,-0.773691176 12.4631618,-0.773691176 16.1184265,2.88157353 C19.7736912,6.53683824 19.7736912,12.4634412 16.1184265,16.1187059 C12.4631618,19.7739706 6.53655882,19.7739706 2.88129412,16.1187059 Z M12.5427941,7.26470588 L12.5013182,11.2681176 C12.4991352,12.384675 10.8248476,12.3868544 10.8270271,11.2703007 L10.8313929,9.91034775 C10.8324842,9.60036834 10.655668,9.52615657 10.4362767,9.74553951 L7.71855022,12.463266 C7.39328699,12.7885292 6.86285169,12.7896189 6.53649875,12.463266 C6.21014581,12.1380027 6.21014581,11.6075675 6.53649875,11.2812145 L9.25422522,8.56348804 C9.47251566,8.3451976 9.39938801,8.16728216 9.08941699,8.16837187 L7.72946404,8.17273768 C6.61290669,8.17492044 6.6150861,6.50062591 7.73164709,6.4984465 L11.7110294,6.43950738 C12.1770883,6.43295881 12.5470853,6.80296621 12.5427265,7.26463826 L12.5427941,7.26470588 Z M4.26410294,14.7356176 C7.15545588,17.6269706 11.8442647,17.6269706 14.7356176,14.7356176 C17.6269706,11.8442647 17.6269706,7.15545588 14.7356176,4.26410294 C11.8442647,1.37275 7.15545588,1.37275 4.26410294,4.26410294 C1.37275,7.15545588 1.37275,11.8442647 4.26410294,14.7356176 Z" id="Shape"></path>
                </g>
            </g>
        </g>
    </g>
</svg>