<?xml version="1.0" encoding="UTF-8"?>
<svg width="18px" height="18px" viewBox="0 0 18 18" version="1.1" xmlns="http://www.w3.org/2000/svg" xmlns:xlink="http://www.w3.org/1999/xlink">
    <!-- Generator: Sketch 49.2 (51160) - http://www.bohemiancoding.com/sketch -->
    <title>ICON - PHONE</title>
    <desc>Created with Sketch.</desc>
    <defs></defs>
    <g id="Mobile" stroke="none" stroke-width="1" fill="none" fill-rule="evenodd">
        <g id="11.2-Find-an-accredited-assessor---results-MOBILE" transform="translate(-121.000000, -1370.000000)" fill="#007299">
            <g id="Group-3-Copy" transform="translate(121.000000, 1338.000000)">
                <g id="ICON---PHONE" transform="translate(0.000000, 32.000000)">
                    <g id="Shape">
                        <path d="M7.56494439,2.63386775 C8.29448747,3.36332643 8.29448747,4.65992298 7.56494439,5.38940865 L6.26819783,6.6860052 C7.24129079,8.79323433 9.26641989,10.7382236 11.2927635,11.7912175 L12.5895101,10.413447 C13.4002364,9.68398836 14.6157997,9.68398836 15.3453698,10.413447 L17.4528427,12.5206762 C18.1823858,13.2501349 18.1823858,14.4655575 17.4528427,15.2762171 L15.3453698,17.3022723 C11.3739198,21.3544907 -3.29601987,6.60475034 0.675430085,2.63402967 L2.78290301,0.607974437 C3.51244609,-0.202658146 4.72800936,-0.202658146 5.53876271,0.607974437 L7.56494439,2.63386775 Z M4.72787441,1.337282 C4.40316823,1.01261338 3.83596475,1.01261338 3.51231114,1.337282 L1.48602151,3.36333723 C-1.51220055,6.36121244 11.6174697,19.4896337 14.6156917,16.4914886 L16.6419814,14.4654334 C16.9666876,14.1407647 17.0468183,13.5736269 16.7231593,13.2500107 L14.6156863,11.2239555 C14.2909802,10.8191654 13.7237767,10.8191654 13.4001231,11.2239555 L11.7786703,12.7640468 C11.6163146,12.9263838 11.3738334,13.0075523 11.2114669,12.9263838 C8.69915703,11.792135 6.26813846,9.36018329 5.13270591,6.84832601 C4.97035012,6.68598901 5.05152801,6.36236205 5.2138838,6.20004123 L6.83533654,4.65994997 C7.16004272,4.2551599 7.16004272,3.68696958 6.83533654,3.36335342 L4.72787441,1.337282 Z" fill-rule="nonzero"></path>
                    </g>
                </g>
            </g>
        </g>
    </g>
</svg>