<?xml version="1.0" encoding="UTF-8"?>
<svg width="17px" height="26px" viewBox="0 0 17 26" version="1.1" xmlns="http://www.w3.org/2000/svg" xmlns:xlink="http://www.w3.org/1999/xlink">
    <!-- Generator: Sketch 49.2 (51160) - http://www.bohemiancoding.com/sketch -->
    <title>Group 4</title>
    <desc>Created with Sketch.</desc>
    <defs></defs>
    <g id="Desktop" stroke="none" stroke-width="1" fill="none" fill-rule="evenodd">
        <g id="12.3---FInd-a-rated-building---Rating-details" transform="translate(-1187.000000, -1166.000000)" fill="#00C2F3">
            <g id="Group-4" transform="translate(1187.000000, 1166.000000)">
                <path d="M2.2013156,16.191028 L14.799905,16.191028 C14.6667003,15.0548414 14.2092924,13.0535917 12.705368,10.5856299 C11.7952789,9.09265751 10.9429835,7.54925829 10.1186181,6.05670789 C9.59138518,5.1013406 9.05212086,4.1252962 8.49652822,3.16043432 C7.95962722,4.09786737 7.43755061,5.04563898 6.92643117,5.97294446 C6.08831559,7.49397864 5.2218403,9.06691661 4.29606742,10.5858409 C2.79300243,13.0521148 2.33495003,15.0525205 2.2013156,16.191028 Z M2.23934341,18.3009381 C2.75110739,21.236456 5.36106073,23.4773915 8.49373522,23.4773915 C11.6266246,23.4773915 14.2363631,21.236456 14.748127,18.3009381 L2.23934341,18.3009381 Z M8.49373522,25.5873016 C3.81029985,25.5873016 0,21.8453761 0,17.2459831 C0,17.2198202 0.000859385362,17.1938683 0.00279300243,17.1683384 C-0.021484634,16.2800662 0.10742317,13.3506671 2.45247098,9.50219106 C3.35439591,8.02251112 4.20969919,6.47025027 5.0368576,4.96883825 C5.84532438,3.50139579 6.68150634,1.98415944 7.57032565,0.515873016 C7.76368736,0.196432629 8.11388689,0.000632973026 8.49201645,0 L8.49373522,0 C8.87143509,0 9.22120493,0.194744701 9.41542602,0.512919142 C10.3276636,2.00905638 11.1814629,3.55540948 12.0073323,5.05070276 C12.8207405,6.52405297 13.6620788,8.04740806 14.5487496,9.50198007 C17.1584881,13.7844646 17.0231349,16.9286526 16.9863962,17.3894569 C16.9079773,21.9228098 13.1284005,25.5873016 8.49373522,25.5873016 Z" id="Fill-1"></path>
            </g>
        </g>
    </g>
</svg>