<?xml version="1.0" encoding="UTF-8"?>
<svg width="28px" height="23px" viewBox="0 0 28 23" version="1.1" xmlns="http://www.w3.org/2000/svg" xmlns:xlink="http://www.w3.org/1999/xlink">
    <!-- Generator: Sketch 49.2 (51160) - http://www.bohemiancoding.com/sketch -->
    <title>Group 3</title>
    <desc>Created with Sketch.</desc>
    <defs></defs>
    <g id="Desktop" stroke="none" stroke-width="1" fill="none" fill-rule="evenodd">
        <g id="12.3---FInd-a-rated-building---Rating-details" transform="translate(-1181.000000, -1458.000000)" fill="#3D563B">
            <g id="Group-3" transform="translate(1181.000000, 1458.000000)">
                <path d="M22.1307769,13.2678081 C19.5319883,14.69363 16.7038009,13.8211976 15.6017492,13.3767881 C15.7116562,12.2674426 16.2475592,9.54945734 18.8463477,8.12383289 C21.4308654,6.70709267 24.4867477,7.39453546 25.7775156,7.79472114 C25.5342719,9.03772509 24.7135906,11.8508705 22.1307769,13.2678081 M4.83129249,10.1052159 C1.9786103,7.46087112 2.05017763,3.50580469 2.19288629,2.03062591 C3.78334234,1.89440089 8.03542137,1.82155012 10.9019484,4.47853031 C13.7735874,7.14044618 13.3605843,10.8728143 13.1120156,12.1537244 C11.7300846,12.3841223 7.70335749,12.7671318 4.83129249,10.1052159 M27.8020615,6.6857705 C27.6981185,6.48775065 27.5268681,6.31875265 27.2940613,6.21944659 C27.0838323,6.12961704 22.0928632,4.04932278 17.7615489,6.42496868 C16.6976239,7.00856457 15.8971775,7.73766457 15.2926891,8.50960635 C15.0108928,6.755265 14.2338761,4.77506651 12.4080573,3.08271741 C8.06034213,-0.947371494 1.4578302,0.113011964 1.17880282,0.16039458 C0.919371262,0.2042235 0.702752299,0.334525693 0.54832875,0.510236227 C0.359825522,0.653173785 0.219885838,0.853562765 0.17281328,1.0930424 C0.122119757,1.35167251 -1.02210549,7.47172964 3.32539664,11.5012263 C5.79297845,13.7884246 8.82819991,14.3031183 11.0614839,14.3031183 C11.802291,14.3031183 12.4532128,14.2462591 12.96739,14.1789363 L12.96739,22.0128622 C12.96739,22.5581571 13.4442925,23 14.03238,23 C14.6206805,23 15.09737,22.5581571 15.09737,22.0128622 L15.09737,15.3232265 C15.9838676,15.650364 17.3608997,16.0351503 18.9515687,16.0351503 C20.2821672,16.0351503 21.7597343,15.7652668 23.2157887,14.9666723 C27.5462509,12.5912239 27.9809799,7.53490646 27.9973807,7.32069755 C28.0154855,7.08477161 27.9385933,6.86503473 27.8020615,6.6857705" id="Fill-1"></path>
            </g>
        </g>
    </g>
</svg>