<?xml version="1.0" encoding="UTF-8"?>
<svg width="21px" height="21px" viewBox="0 0 21 21" version="1.1" xmlns="http://www.w3.org/2000/svg" xmlns:xlink="http://www.w3.org/1999/xlink">
    <!-- Generator: Sketch 49 (51002) - http://www.bohemiancoding.com/sketch -->
    <title>Close</title>
    <desc>Created with Sketch.</desc>
    <defs></defs>
    <g id="V6" stroke="none" stroke-width="1" fill="none" fill-rule="evenodd" stroke-linecap="round" stroke-linejoin="round">
        <g id="Seach-bar" transform="translate(-1510.000000, -71.000000)" fill="#4A4A4A" fill-rule="nonzero" stroke="#4A4A4A" stroke-width="2">
            <g id="Close-dark" transform="translate(1511.000000, 72.000000)">
                <path d="M10.0692568,9.49971262 L18.8819933,0.687469534 C19.0393356,0.530122572 19.0393356,0.274797618 18.8819933,0.117454457 C18.7246511,-0.0391514856 18.4693339,-0.0391514856 18.3127365,0.117454457 L9.5,8.93045756 L0.687263488,0.117454457 C0.530662283,-0.0391514856 0.274604057,-0.0391514856 0.118006652,0.117454457 C-0.0393355505,0.274801418 -0.0393355505,0.530126372 0.118006652,0.687469534 L8.93074316,9.49971262 L0.118006652,18.3127157 C-0.0393355505,18.4700646 -0.0393355505,18.7253876 0.118006652,18.8819898 C0.19742065,18.9614062 0.299098763,19 0.403005569,19 C0.506169477,19 0.608584787,18.9614062 0.687263488,18.8819898 L9.5,10.0689867 L18.3127365,18.8819898 C18.3914076,18.9614062 18.4938305,19 18.5969944,19 C18.7001583,19 18.8033146,18.9614062 18.8819933,18.8819898 C19.0393356,18.7246428 19.0393356,18.4693179 18.8819933,18.3127157 L10.0692568,9.49971262 Z" id="Shape"></path>
            </g>
        </g>
    </g>
</svg>