<?xml version="1.0" encoding="UTF-8"?>
<svg width="41px" height="40px" viewBox="0 0 41 40" version="1.1" xmlns="http://www.w3.org/2000/svg" xmlns:xlink="http://www.w3.org/1999/xlink">
    <!-- Generator: Sketch 49 (51002) - http://www.bohemiancoding.com/sketch -->
    <title>Group</title>
    <desc>Created with Sketch.</desc>
    <defs></defs>
    <g id="Symbols" stroke="none" stroke-width="1" fill="none" fill-rule="evenodd">
        <g id="social-dark-copy" transform="translate(-214.000000, 0.000000)" fill="#4A4A4A">
            <g id="Group" transform="translate(214.000000, 0.000000)">
                <path d="M20.3,4 C25.6,4 26.2,4 28.3,4.1 C30.2,4.2 31.3,4.5 32,4.8 C32.9,5.2 33.6,5.6 34.3,6.3 C35,7 35.4,7.6 35.8,8.5 C36.1,9.2 36.4,10.2 36.5,12.1 C36.6,14.2 36.6,14.8 36.6,20 C36.6,25.2 36.6,25.8 36.5,27.9 C36.4,29.8 36.1,30.8 35.8,31.5 C35.4,32.4 35,33.1 34.3,33.7 C33.6,34.4 32.9,34.8 32,35.2 C31.3,35.5 30.3,35.8 28.3,35.9 C26.2,36 25.6,36 20.3,36 C15,36 14.4,36 12.3,35.9 C10.4,35.8 9.3,35.5 8.6,35.2 C7.7,34.8 7,34.4 6.3,33.7 C5.6,33 5.2,32.4 4.8,31.5 C4.5,30.8 4.2,29.8 4.1,27.9 C4,25.8 4,25.2 4,20 C4,14.8 4,14.2 4.1,12.1 C4.2,10.2 4.5,9.2 4.8,8.5 C5.2,7.6 5.6,6.9 6.3,6.3 C7,5.6 7.7,5.2 8.6,4.8 C9.3,4.5 10.3,4.2 12.3,4.1 C14.4,4 15,4 20.3,4 Z M20.3,0.5 C14.9,0.5 14.3,0.5 12.1,0.6 C10,0.7 8.6,1 7.3,1.5 C6,2 4.9,2.7 3.8,3.8 C2.7,4.9 2,6 1.5,7.3 C1,8.5 0.7,10 0.6,12 C0.5,14.1 0.5,14.7 0.5,20 C0.5,25.3 0.5,26 0.6,28 C0.7,30.1 1,31.5 1.5,32.7 C2,34 2.7,35.1 3.8,36.2 C4.9,37.3 6,38 7.3,38.5 C8.6,39 10,39.3 12.1,39.4 C14.2,39.5 14.9,39.5 20.3,39.5 C25.7,39.5 26.3,39.5 28.5,39.4 C30.6,39.3 32,39 33.3,38.5 C34.6,38 35.7,37.3 36.8,36.2 C37.9,35.1 38.6,34 39.1,32.7 C39.6,31.5 39.9,30 40,28 C40.1,25.9 40.1,25.3 40.1,20 C40.1,14.7 40.1,14 40,12 C39.9,9.9 39.6,8.5 39.1,7.3 C38.6,6 37.9,4.9 36.8,3.8 C35.7,2.7 34.6,2 33.3,1.5 C32,1 30.6,0.7 28.5,0.6 C26.3,0.5 25.7,0.5 20.3,0.5 Z" id="Shape"></path>
                <path d="M20.3,10 C14.7,10 10.1,14.5 10.1,20 C10.1,25.5 14.6,30 20.3,30 C25.9,30 30.5,25.5 30.5,20 C30.4,14.5 25.9,10 20.3,10 Z M20.3,26.5 C16.7,26.5 13.7,23.6 13.7,20 C13.7,16.4 16.7,13.5 20.3,13.5 C23.9,13.5 26.9,16.4 26.9,20 C26.9,23.6 23.9,26.5 20.3,26.5 Z" id="Shape"></path>
                <path d="M33.2,9.6 C33.2,10.9 32.1,11.9 30.8,11.9 C29.5,11.9 28.4,10.9 28.4,9.6 C28.4,8.3 29.5,7.3 30.8,7.3 C32.2,7.2 33.2,8.3 33.2,9.6 Z" id="Shape"></path>
            </g>
        </g>
    </g>
</svg>