<?xml version="1.0" encoding="UTF-8"?>
<svg width="36px" height="28px" viewBox="0 0 36 28" version="1.1" xmlns="http://www.w3.org/2000/svg" xmlns:xlink="http://www.w3.org/1999/xlink">
    <!-- Generator: Sketch 49 (51002) - http://www.bohemiancoding.com/sketch -->
    <title>Shape</title>
    <desc>Created with Sketch.</desc>
    <defs></defs>
    <g id="Symbols" stroke="none" stroke-width="1" fill="none" fill-rule="evenodd">
        <g id="social-dark" transform="translate(-79.000000, -6.000000)" fill="#007299">
            <path d="M115,9.28888889 C113.636364,9.82222222 112.272727,10.2666667 110.727273,10.4444444 C112.272727,9.55555556 113.454545,8.22222222 114,6.53333333 C112.545455,7.33333333 111,7.95555556 109.272727,8.22222222 C107.909091,6.88888889 106,6 103.909091,6 C99.1818182,6 95.6363636,10.2666667 96.7272727,14.7111111 C90.6363636,14.4444444 85.1818182,11.6 81.5454545,7.33333333 C79.6363636,10.5333333 80.5454545,14.6222222 83.8181818,16.7555556 C82.6363636,16.7555556 81.4545455,16.4 80.4545455,15.8666667 C80.3636364,19.1555556 82.8181818,22.1777778 86.3636364,22.8888889 C85.3636364,23.1555556 84.1818182,23.2444444 83,22.9777778 C83.9090909,25.8222222 86.6363636,27.8666667 89.9090909,27.8666667 C86.8181818,30.1777778 82.9090909,31.2444444 79,30.8 C82.2727273,32.8444444 86.1818182,34 90.2727273,34 C104,34 111.727273,22.8888889 111.272727,13.0222222 C112.727273,11.9555556 114,10.7111111 115,9.28888889 Z" id="Shape"></path>
        </g>
    </g>
</svg>